<?xml version="1.0" encoding="UTF-8" standalone="no"?>
<!-- Created with Inkscape (http://www.inkscape.org/) -->

<svg
   xmlns:dc="http://purl.org/dc/elements/1.1/"
   xmlns:cc="http://creativecommons.org/ns#"
   xmlns:rdf="http://www.w3.org/1999/02/22-rdf-syntax-ns#"
   xmlns:svg="http://www.w3.org/2000/svg"
   xmlns="http://www.w3.org/2000/svg"
   xmlns:sodipodi="http://sodipodi.sourceforge.net/DTD/sodipodi-0.dtd"
   xmlns:inkscape="http://www.inkscape.org/namespaces/inkscape"
   width="16"
   height="16"
   viewBox="0 0 4.2333332 4.2333335"
   version="1.1"
   id="svg8"
   inkscape:version="0.92.1 r15371"
   sodipodi:docname="initkey-icon.svg"
   inkscape:export-xdpi="1536.1211"
   inkscape:export-ydpi="1536.1211">
  <defs
     id="defs2" />
  <sodipodi:namedview
     id="base"
     pagecolor="#ffffff"
     bordercolor="#666666"
     borderopacity="1.0"
     inkscape:pageopacity="0.0"
     inkscape:pageshadow="2"
     inkscape:zoom="22.4"
     inkscape:cx="6.5613645"
     inkscape:cy="8.3713338"
     inkscape:document-units="px"
     inkscape:current-layer="layer1"
     showgrid="false"
     units="px"
     inkscape:snap-page="false"
     showborder="false"
     inkscape:window-width="1680"
     inkscape:window-height="987"
     inkscape:window-x="-8"
     inkscape:window-y="-8"
     inkscape:window-maximized="1">
    <inkscape:grid
       type="xygrid"
       id="grid4485" />
  </sodipodi:namedview>
  <metadata
     id="metadata5">
    <rdf:RDF>
      <cc:Work
         rdf:about="">
        <dc:format>image/svg+xml</dc:format>
        <dc:type
           rdf:resource="http://purl.org/dc/dcmitype/StillImage" />
        <dc:title></dc:title>
      </cc:Work>
    </rdf:RDF>
  </metadata>
  <g
     inkscape:label="Layer 1"
     inkscape:groupmode="layer"
     id="layer1"
     transform="translate(0,-292.76665)">
    <path
       style="fill:#aa8800;fill-rule:evenodd;stroke:none;stroke-width:0.99999994px;stroke-linecap:butt;stroke-linejoin:miter;stroke-opacity:1"
       d="M 13 0 A 2.9999999 2.9999999 0 0 0 10 3 A 2.9999999 2.9999999 0 0 0 12 5.8242188 L 12 16 L 16 16 L 16 14 L 14 14 L 14 12 L 16 12 L 16 10 L 14 10 L 14 5.8261719 A 2.9999999 2.9999999 0 0 0 16 3 A 2.9999999 2.9999999 0 0 0 13 0 z M 12 2 L 14 2 L 14 4 L 12 4 L 12 2 z "
       transform="matrix(0.26458333,0,0,0.26458333,0,292.76665)"
       id="path4527" />
    <path
       style="fill:#8a916f;fill-rule:evenodd;stroke:none;stroke-width:0.26458332px;stroke-linecap:butt;stroke-linejoin:miter;stroke-opacity:1"
       d="m 0,295.41248 c 0.52916666,0 0.52916666,0 0.52916666,0 v 1.5875 H 0 Z"
       id="path4531"
       inkscape:connector-curvature="0" />
    <path
       style="fill:#8a916f;fill-rule:evenodd;stroke:none;stroke-width:0.26458332px;stroke-linecap:butt;stroke-linejoin:miter;stroke-opacity:1"
       d="m 0.79375001,295.41248 v 1.5875 H 1.3229167 v -1.05833 H 1.5875 v 1.05833 h 0.5291667 v -1.5875 z"
       id="path4533"
       inkscape:connector-curvature="0"
       sodipodi:nodetypes="ccccccccc" />
    <path
       inkscape:connector-curvature="0"
       id="path4535"
       d="m 2.38125,295.41248 c 0.5291667,0 0.5291667,0 0.5291667,0 v 1.5875 H 2.38125 Z"
       style="fill:#8a916f;fill-rule:evenodd;stroke:none;stroke-width:0.26458332px;stroke-linecap:butt;stroke-linejoin:miter;stroke-opacity:1" />
    <path
       inkscape:connector-curvature="0"
       id="path4537"
       d="m 0,294.61873 h 0.52916667 v 0.52917 H 0 Z"
       style="fill:#8a916f;fill-rule:evenodd;stroke:none;stroke-width:0.26458332px;stroke-linecap:butt;stroke-linejoin:miter;stroke-opacity:1"
       sodipodi:nodetypes="ccccc" />
    <path
       sodipodi:nodetypes="ccccc"
       style="fill:#8a916f;fill-rule:evenodd;stroke:none;stroke-width:0.26458332px;stroke-linecap:butt;stroke-linejoin:miter;stroke-opacity:1"
       d="m 2.38125,294.61873 h 0.5291667 v 0.52917 H 2.38125 Z"
       id="path4539"
       inkscape:connector-curvature="0" />
  </g>
</svg>
